<mxfile host="65bd71144e">
    <diagram id="M7iVXUw6QS7LhcD568ym" name="PÃ¡gina-1">
        <mxGraphModel dx="2269" dy="411" grid="1" gridSize="10" guides="1" tooltips="1" connect="1" arrows="1" fold="1" page="1" pageScale="1" pageWidth="1654" pageHeight="2336" math="0" shadow="0">
            <root>
                <mxCell id="0"/>
                <mxCell id="1" parent="0"/>
                <mxCell id="5" value="" style="edgeStyle=none;html=1;" edge="1" parent="1" source="3" target="4">
                    <mxGeometry relative="1" as="geometry"/>
                </mxCell>
                <mxCell id="3" value="INICIO" style="ellipse;whiteSpace=wrap;html=1;fillColor=#60a917;fontColor=#ffffff;strokeColor=#2D7600;" vertex="1" parent="1">
                    <mxGeometry x="370" y="80" width="110" height="50" as="geometry"/>
                </mxCell>
                <mxCell id="7" value="" style="edgeStyle=none;html=1;" edge="1" parent="1" source="4" target="6">
                    <mxGeometry relative="1" as="geometry"/>
                </mxCell>
                <mxCell id="4" value="COUTA_FIJA = 10000&amp;nbsp;" style="rounded=0;whiteSpace=wrap;html=1;fillColor=#008a00;fontColor=#ffffff;strokeColor=#005700;" vertex="1" parent="1">
                    <mxGeometry x="365" y="160" width="120" height="60" as="geometry"/>
                </mxCell>
                <mxCell id="9" value="" style="edgeStyle=none;html=1;" edge="1" parent="1" source="6" target="8">
                    <mxGeometry relative="1" as="geometry"/>
                </mxCell>
                <mxCell id="6" value="gasto_mensual" style="shape=parallelogram;perimeter=parallelogramPerimeter;whiteSpace=wrap;html=1;fixedSize=1;rounded=0;fillColor=#1ba1e2;fontColor=#ffffff;strokeColor=#006EAF;" vertex="1" parent="1">
                    <mxGeometry x="365" y="250" width="120" height="60" as="geometry"/>
                </mxCell>
                <mxCell id="8" value="gasto_mensual&lt;br&gt;&amp;lt; = 50&lt;br&gt;" style="rhombus;whiteSpace=wrap;html=1;rounded=0;fillColor=#0050ef;fontColor=#ffffff;strokeColor=#001DBC;" vertex="1" parent="1">
                    <mxGeometry x="360" y="340" width="130" height="120" as="geometry"/>
                </mxCell>
                <mxCell id="10" value="" style="shape=partialRectangle;whiteSpace=wrap;html=1;bottom=0;right=0;fillColor=none;direction=south;" vertex="1" parent="1">
                    <mxGeometry x="490" y="400" width="120" height="20" as="geometry"/>
                </mxCell>
                <mxCell id="12" value="costo_agua_mes =&lt;br&gt;COUTA FIJA" style="rounded=0;whiteSpace=wrap;html=1;fillColor=#6a00ff;fontColor=#ffffff;strokeColor=#3700CC;" vertex="1" parent="1">
                    <mxGeometry x="550" y="420" width="120" height="60" as="geometry"/>
                </mxCell>
                <mxCell id="13" value="" style="shape=partialRectangle;whiteSpace=wrap;html=1;bottom=0;right=0;fillColor=none;" vertex="1" parent="1">
                    <mxGeometry x="235" y="400" width="125" height="40" as="geometry"/>
                </mxCell>
                <mxCell id="14" value="gasto_mensual&lt;br&gt;&amp;lt; = 200" style="rhombus;whiteSpace=wrap;html=1;rounded=0;fillColor=#d80073;fontColor=#ffffff;strokeColor=#A50040;" vertex="1" parent="1">
                    <mxGeometry x="170" y="440" width="130" height="120" as="geometry"/>
                </mxCell>
                <mxCell id="15" value="" style="shape=partialRectangle;whiteSpace=wrap;html=1;bottom=0;right=0;fillColor=none;direction=south;" vertex="1" parent="1">
                    <mxGeometry x="300" y="500" width="110" height="20" as="geometry"/>
                </mxCell>
                <mxCell id="16" value="costo_agua_mes =&lt;br&gt;COUTA_FIJA+2000*&lt;br&gt;(gasto_mensual-50)" style="rounded=0;whiteSpace=wrap;html=1;fillColor=#a20025;fontColor=#ffffff;strokeColor=#6F0000;" vertex="1" parent="1">
                    <mxGeometry x="340" y="520" width="170" height="70" as="geometry"/>
                </mxCell>
                <mxCell id="17" value="" style="shape=partialRectangle;whiteSpace=wrap;html=1;bottom=0;right=0;fillColor=none;" vertex="1" parent="1">
                    <mxGeometry x="40" y="500" width="130" height="20" as="geometry"/>
                </mxCell>
                <mxCell id="18" value="costo_agua_mes =&lt;br&gt;COUTA_FIJA+3000*&lt;br&gt;(gasto_mesual-50)" style="rounded=0;whiteSpace=wrap;html=1;fillColor=#fa6800;fontColor=#000000;strokeColor=#C73500;" vertex="1" parent="1">
                    <mxGeometry x="-40" y="520" width="170" height="70" as="geometry"/>
                </mxCell>
                <mxCell id="19" value="" style="shape=partialRectangle;whiteSpace=wrap;html=1;bottom=1;right=1;left=1;top=0;fillColor=none;routingCenterX=-0.5;" vertex="1" parent="1">
                    <mxGeometry x="40" y="590" width="380" height="60" as="geometry"/>
                </mxCell>
                <mxCell id="23" value="" style="edgeStyle=none;html=1;" edge="1" parent="1" source="20" target="22">
                    <mxGeometry relative="1" as="geometry"/>
                </mxCell>
                <mxCell id="20" value="" style="shape=partialRectangle;whiteSpace=wrap;html=1;bottom=0;right=0;fillColor=none;direction=west;" vertex="1" parent="1">
                    <mxGeometry x="210" y="480" width="410" height="240" as="geometry"/>
                </mxCell>
                <mxCell id="21" value="" style="shape=partialRectangle;whiteSpace=wrap;html=1;bottom=0;right=0;fillColor=none;" vertex="1" parent="1">
                    <mxGeometry x="210" y="650" width="120" height="70" as="geometry"/>
                </mxCell>
                <mxCell id="27" value="" style="edgeStyle=none;html=1;" edge="1" parent="1" source="22" target="26">
                    <mxGeometry relative="1" as="geometry"/>
                </mxCell>
                <mxCell id="22" value="costo_agua_mes" style="shape=document;whiteSpace=wrap;html=1;boundedLbl=1;fillColor=#e3c800;fontColor=#000000;strokeColor=#B09500;" vertex="1" parent="1">
                    <mxGeometry x="360" y="770" width="115" height="50" as="geometry"/>
                </mxCell>
                <mxCell id="26" value="INICIO" style="ellipse;whiteSpace=wrap;html=1;fillColor=#76608a;fontColor=#ffffff;strokeColor=#432D57;" vertex="1" parent="1">
                    <mxGeometry x="360" y="860" width="110" height="50" as="geometry"/>
                </mxCell>
            </root>
        </mxGraphModel>
    </diagram>
</mxfile>